# xmcd CD database file
#
# Track frame offsets:
#	150
#	24807
#	43107
#	55107
#	88192
#	105742
#	125392
#	152092
#	171817
#	208717
#	231143
#	245018
#	270129
#	294281
#	312431
#
# Disc length: 4397 seconds
#
# Revision: 0
# Processed by: cddbd v1.5.2PL0 Copyright (c) Steve Scherf et al.
# Submitted via: CDex 1.51
#
DISCID=c4112b0f
DTITLE=Real Book North West - Real Book North West
DYEAR=2009
DGENRE=Jazz
TTITLE0=Anything You Like
TTITLE1=Time To Remember
TTITLE2=One Kiss
TTITLE3=Blue Chilli
TTITLE4=Tow The Line
TTITLE5=Aviator's Ball
TTITLE6=Harlequin
TTITLE7=The Waggon Train
TTITLE8=Clockmaker
TTITLE9=Shadow Of A Dream
TTITLE10=Song For Betty
TTITLE11=Lark Hill
TTITLE12=People That I Love
TTITLE13=Cuthbert, Dibble, Grubb
TTITLE14=Still
EXTD=YEAR: 2009
EXTT0=
EXTT1=
EXTT2=
EXTT3=
EXTT4=
EXTT5=
EXTT6=
EXTT7=
EXTT8=
EXTT9=
EXTT10=
EXTT11=
EXTT12=
EXTT13=
EXTT14=
PLAYORDER=
